<svg xmlns="http://www.w3.org/2000/svg" width="1200" height="760" viewBox="0 0 1200 760">
<defs><linearGradient id="b" x1="0" x2="1"><stop offset="0" stop-color="#f8fafc"/><stop offset="1" stop-color="#e0f2fe"/></linearGradient></defs>
<rect width="1200" height="760" fill="url(#b)"/>
<text x="70" y="95" font-size="44" font-weight="800" font-family="Arial" fill="#0f172a">원하는 차량, 원하는 옵션</text>
<text x="70" y="145" font-size="24" font-family="Arial" fill="#475569">정해진 차량이 아닌 고객 상황에 맞춘 차량 선택</text>
<g transform="translate(90 250)">
  <rect x="0" y="0" width="290" height="210" rx="28" fill="#fff" stroke="#cbd5e1"/><text x="45" y="165" font-size="32" font-weight="700" font-family="Arial" fill="#0f172a">SUV</text>
  <path d="M40 105 C70 55 115 45 185 50 C220 55 245 78 260 110 L270 145 H25 L40 105Z" fill="#1e40af"/><circle cx="85" cy="148" r="25" fill="#111827"/><circle cx="220" cy="148" r="25" fill="#111827"/>
  <rect x="355" y="0" width="290" height="210" rx="28" fill="#fff" stroke="#cbd5e1"/><text x="400" y="165" font-size="32" font-weight="700" font-family="Arial" fill="#0f172a">SEDAN</text>
  <path d="M395 115 C435 55 510 45 575 75 C605 90 625 110 635 140 H380 L395 115Z" fill="#334155"/><circle cx="435" cy="148" r="25" fill="#111827"/><circle cx="595" cy="148" r="25" fill="#111827"/>
  <rect x="710" y="0" width="290" height="210" rx="28" fill="#fff" stroke="#cbd5e1"/><text x="755" y="165" font-size="32" font-weight="700" font-family="Arial" fill="#0f172a">EV</text>
  <path d="M745 105 C780 60 855 45 925 75 C955 90 975 110 990 140 H730 L745 105Z" fill="#06b6d4"/><circle cx="790" cy="148" r="25" fill="#111827"/><circle cx="950" cy="148" r="25" fill="#111827"/>
</g>
<g font-family="Arial" fill="#0f172a" font-size="26" font-weight="700">
<text x="110" y="610">✓ 원하는 옵션 상담</text>
<text x="455" y="610">✓ 다양한 차종</text>
<text x="760" y="610">✓ 라이프스타일 맞춤</text>
</g>
</svg>